<svg xmlns="http://www.w3.org/2000/svg" viewBox="0 0 128 128" width="128" height="128">
  <defs>
    <linearGradient id="tile" x1="0" y1="0" x2="0" y2="1">
      <stop offset="0" stop-color="#34a53a"></stop>
      <stop offset="1" stop-color="#15692a"></stop>
    </linearGradient>
  </defs>
  <rect width="128" height="128" rx="30" fill="url(#tile)"></rect>
  <g transform="translate(22,28) scale(0.75)">
    <path fill="#ffffff" fill-rule="evenodd" d="M3 3 H39 A28 28 0 0 1 39 59 H25 V93 H3 Z M25 19 H39 A12 12 0 0 1 39 43 H25 Z"></path>
    <g transform="translate(48,0)" opacity="0.92">
      <path fill="#cfe6bb" fill-rule="evenodd" d="M3 3 H39 A28 28 0 0 1 39 59 H25 V93 H3 Z M25 19 H39 A12 12 0 0 1 39 43 H25 Z"></path>
    </g>
  </g>
</svg>